<?xml version="1.0" standalone="no"?>
<!DOCTYPE svg PUBLIC "-//W3C//DTD SVG 20010904//EN"
 "http://www.w3.org/TR/2001/REC-SVG-20010904/DTD/svg10.dtd">
<svg version="1.0" xmlns="http://www.w3.org/2000/svg"
 width="264.000000pt" height="264.000000pt" viewBox="0 0 264.000000 264.000000"
 preserveAspectRatio="xMidYMid meet">
<metadata>
Created by potrace 1.11, written by Peter Selinger 2001-2013
</metadata>
<g transform="translate(0.000000,264.000000) scale(0.100000,-0.100000)"
fill="#000000" stroke="none">
<path d="M0 2598 c0 -37 4 -48 16 -48 12 0 14 7 9 33 -13 58 -24 65 -25 15z"/>
<path d="M31 2608 c14 -51 11 -68 -11 -68 -18 0 -20 -7 -20 -64 0 -54 3 -64
19 -69 21 -5 59 -104 45 -116 -5 -5 -20 -5 -34 0 -24 7 -24 7 -2 8 25 1 26 10
11 64 -6 22 -15 37 -22 34 -14 -4 -23 -368 -12 -514 l7 -92 36 -3 c37 -3 37
-3 37 -48 l0 -45 37 3 37 3 3 -48 c3 -48 3 -48 38 -48 35 0 35 -1 38 -46 3
-46 3 -47 -33 -53 -34 -7 -35 -9 -35 -49 l0 -43 35 4 35 4 0 -46 0 -46 36 0
35 0 -3 -46 -3 -46 -47 -4 -48 -3 0 45 c0 41 -2 45 -22 44 -42 -4 -46 0 -53
46 -5 35 -10 44 -22 40 -8 -3 -23 -6 -33 -6 -16 0 -18 -7 -17 -42 2 -43 2 -43
-30 -40 l-33 4 0 -163 c0 -120 3 -167 13 -178 8 -9 28 -50 46 -91 40 -91 58
-113 86 -106 12 3 30 -1 41 -9 15 -11 17 -17 8 -32 -8 -13 -7 -26 3 -51 12
-30 12 -36 -1 -51 -24 -26 -20 -40 21 -77 30 -27 34 -36 24 -48 -16 -18 -5
-39 43 -85 28 -28 36 -43 36 -71 0 -20 6 -45 14 -56 13 -16 18 -17 36 -6 23
14 25 14 92 -47 26 -23 27 -26 12 -48 -23 -36 -5 -80 22 -53 7 7 16 4 29 -10
16 -17 17 -25 7 -40 -16 -25 -15 -45 1 -58 10 -8 16 -6 25 9 12 19 14 18 49
-16 32 -31 42 -35 90 -35 29 0 52 3 52 7 -1 5 2 23 6 41 8 33 25 44 25 17 0
-9 7 -27 16 -40 l16 -25 418 0 417 0 13 73 c7 39 16 81 21 92 l8 20 0 -20 c0
-11 -6 -47 -14 -80 -8 -33 -14 -66 -15 -73 0 -10 62 -12 292 -10 338 3 346 6
228 73 -38 22 -70 44 -70 48 0 5 3 6 8 4 115 -64 152 -91 147 -108 -6 -18 3
-19 184 -19 l191 0 0 89 c0 62 -4 91 -12 94 -10 4 -9 6 1 6 11 1 11 4 0 18
-12 14 -12 15 0 9 10 -7 12 2 10 45 -3 43 -8 55 -24 61 -18 5 -17 6 5 7 21 1
19 4 -17 21 -24 10 -43 22 -43 25 0 3 13 -1 30 -10 38 -20 50 -19 49 3 0 11
-2 12 -6 4 -4 -10 -8 -9 -19 5 -18 24 -18 38 1 23 9 -7 18 -11 20 -8 3 3 4
134 3 291 l-3 286 -122 -82 c-67 -45 -125 -90 -129 -100 -4 -12 -13 -17 -25
-14 -12 3 -20 -2 -24 -14 -4 -12 -16 -19 -31 -19 -31 0 -32 -26 -1 -36 12 -3
52 -20 89 -36 62 -28 76 -43 55 -59 -8 -6 18 -39 31 -39 4 0 13 9 19 19 10 17
9 18 -10 14 -18 -4 -19 -3 -7 6 12 9 13 11 1 11 -8 0 -12 3 -9 6 7 6 78 -22
78 -31 0 -3 -6 -5 -12 -4 -27 3 -38 -2 -38 -16 0 -21 -26 -19 -50 5 -12 12
-24 19 -29 16 -4 -3 -8 1 -9 9 -1 8 -3 21 -4 29 -1 8 -8 12 -16 8 -9 -3 -13
-1 -9 5 4 6 -11 18 -35 28 -28 11 -44 13 -46 6 -2 -6 -13 -11 -25 -11 -18 0
-19 -2 -7 -10 24 -15 -2 -11 -30 5 -32 18 -40 18 -40 1 0 -8 7 -17 16 -20 9
-4 14 -9 11 -13 -10 -10 -37 18 -37 38 0 11 6 19 14 19 9 0 12 7 9 19 -6 23 8
33 27 19 12 -8 12 -9 -2 -4 -26 8 -22 -11 7 -30 30 -19 68 -12 43 9 -8 6 -18
20 -21 30 -5 13 -1 17 22 17 21 0 30 6 34 21 4 13 12 19 24 17 10 -1 20 1 22
6 2 4 -50 76 -115 159 -66 83 -124 158 -131 167 -10 15 7 31 137 123 82 59
151 107 153 107 4 0 188 -214 214 -248 10 -14 12 86 13 502 0 464 -4 590 -15
469 -3 -39 -50 -122 -69 -124 -6 -1 -18 -1 -26 0 -17 2 -59 -109 -69 -184 -6
-37 -8 -40 -39 -41 -28 0 -38 -7 -63 -45 -25 -37 -28 -50 -23 -83 l6 -39 -35
7 c-28 5 -38 3 -47 -11 -10 -17 -11 -17 -8 2 2 15 12 21 39 23 33 3 35 5 31
32 -3 21 5 44 28 80 28 44 36 50 63 47 30 -2 32 0 37 38 4 22 17 73 30 113 22
65 26 72 50 72 20 0 33 10 53 41 15 22 27 52 27 65 0 14 7 41 15 61 12 28 15
85 15 274 l0 239 -649 0 -650 0 -3 -91 c-2 -49 1 -94 7 -100 5 -6 4 -9 -6 -9
-12 0 -14 18 -12 100 2 100 2 100 -22 100 -23 0 -24 -4 -27 -62 -2 -38 -8 -63
-15 -66 -10 -3 -13 14 -13 62 l0 66 -50 0 -50 0 0 -35 c0 -24 -5 -35 -15 -35
-10 0 -15 -10 -15 -30 0 -16 -4 -30 -10 -30 -5 0 -10 -14 -10 -31 0 -22 -5
-32 -20 -36 -24 -6 -26 -38 -4 -51 13 -7 10 -10 -17 -16 -28 -5 -37 -2 -60 24
-15 16 -30 30 -32 30 -3 0 -10 -14 -16 -31 -8 -24 -8 -36 0 -45 7 -9 8 -14 1
-14 -27 0 -31 27 -11 68 12 23 24 42 27 42 3 0 21 -17 41 -37 l36 -37 3 36 c2
26 9 37 23 41 14 4 19 14 19 36 0 17 5 31 10 31 6 0 10 16 10 35 0 24 5 35 15
35 9 0 15 9 15 25 l0 25 -480 0 c-264 0 -480 -3 -480 -7 0 -5 5 -25 11 -45
l10 -38 63 0 c72 0 82 -7 92 -67 5 -35 10 -42 35 -47 17 -3 29 -12 29 -21 0
-8 4 -15 9 -15 5 0 14 -15 20 -32 10 -27 9 -35 -4 -44 -21 -16 -19 -21 10 -26
22 -5 25 -2 25 23 0 24 4 29 25 29 33 0 33 27 0 40 -14 5 -26 15 -26 22 -6 52
-5 95 1 103 5 6 10 21 12 35 3 22 8 25 51 28 27 2 54 -2 62 -8 7 -6 15 -32 19
-60 6 -44 9 -49 34 -52 21 -2 28 -9 30 -30 2 -16 -1 -28 -7 -28 -6 0 -11 -11
-11 -25 0 -16 6 -25 16 -25 14 0 16 -8 10 -51 -7 -48 -5 -53 23 -78 23 -21 30
-36 32 -71 2 -25 0 -51 -4 -57 -4 -7 0 -13 10 -16 14 -4 13 -5 -4 -6 -20 -1
-21 2 -16 54 6 54 5 57 -31 88 -35 32 -47 69 -26 82 16 10 12 45 -5 45 -8 0
-15 6 -15 13 0 6 -3 22 -6 35 -5 16 -2 22 10 22 9 0 16 8 16 20 0 15 -7 20
-29 20 -25 0 -30 4 -35 38 -13 72 -13 72 -67 72 -45 0 -49 -2 -49 -24 0 -14
-3 -27 -7 -29 -5 -3 -6 -28 -5 -56 3 -43 7 -51 24 -51 11 0 22 -8 25 -19 3
-11 11 -22 19 -25 8 -3 14 -18 13 -33 0 -16 -3 -22 -6 -13 -8 21 -24 30 -51
30 -18 0 -23 -5 -22 -22 1 -13 1 -34 1 -48 l-2 -25 -16 23 c-8 12 -23 22 -33
22 -10 0 -21 7 -24 16 -9 23 -8 24 14 24 11 0 20 2 20 5 0 12 -24 55 -32 55
-4 0 -8 6 -8 14 0 9 -12 16 -27 18 -19 2 -29 10 -31 23 -11 65 -23 94 -37 88
-9 -3 -40 -2 -70 2 l-54 6 -13 47 -14 47 -71 3 -72 3 10 -33z m1159 -58 c0
-22 -4 -40 -10 -40 -5 0 -10 11 -10 24 0 13 -3 31 -6 40 -4 11 -1 16 10 16 12
0 16 -10 16 -40z m805 -71 c1 -41 4 -79 7 -85 3 -5 3 -26 1 -46 -4 -30 -10
-38 -27 -39 -20 -1 -20 -2 -1 -6 32 -8 36 -17 26 -61 -5 -26 -5 -44 0 -48 12
-7 1 -72 -17 -101 -19 -30 -18 -33 7 -33 17 0 19 3 10 14 -9 11 -8 18 4 30 9
9 19 32 22 52 6 35 33 59 41 36 2 -7 10 -12 18 -12 17 0 18 -31 4 -80 -9 -30
-7 -37 10 -50 22 -17 19 -48 -7 -63 -7 -4 -13 -17 -13 -27 0 -11 -7 -20 -15
-20 -13 0 -15 -7 -9 -35 4 -21 2 -35 -4 -35 -5 0 -16 -24 -23 -52 -6 -29 -18
-59 -26 -66 -7 -7 -13 -23 -13 -36 0 -12 -7 -31 -16 -42 -15 -19 -16 -19 -9 1
3 11 9 34 12 50 3 17 11 35 17 40 14 11 37 95 30 106 -2 4 2 9 10 12 9 4 12
14 9 26 -3 12 -9 18 -14 15 -11 -7 -11 7 -1 24 5 7 16 10 25 6 13 -4 17 -1 17
14 0 12 8 25 18 31 13 8 15 14 6 28 -6 10 -16 18 -22 18 -20 0 -25 15 -10 32
8 10 18 32 21 48 5 25 1 32 -18 41 -21 10 -23 9 -29 -25 -3 -22 -1 -38 7 -44
8 -6 4 -7 -10 -4 -18 4 -21 1 -20 -21 2 -22 -2 -26 -28 -26 -26 -1 -30 2 -26
24 1 14 7 28 13 31 5 3 13 23 18 43 6 29 5 38 -9 45 -13 8 -14 12 -3 22 20 21
15 70 -8 76 -11 3 -20 12 -20 19 0 8 9 14 20 14 15 0 20 7 20 28 0 45 -11 71
-26 65 -10 -4 -14 3 -14 26 0 19 6 34 15 37 9 4 15 19 15 40 0 24 -5 34 -15
34 -8 0 -15 -7 -15 -15 0 -8 -5 -15 -11 -15 -7 0 -8 -14 -4 -39 5 -32 3 -43
-14 -60 -22 -22 -51 -28 -51 -12 0 6 5 13 10 16 6 3 10 15 10 26 0 11 7 22 15
25 8 4 15 15 15 25 0 27 32 60 54 57 17 -3 19 -13 21 -79z m-362 -31 c-4 -7
10 -8 40 -4 45 7 47 6 52 -21 4 -15 19 -73 35 -128 35 -124 130 -594 130 -646
0 -11 -24 -20 -87 -33 -116 -23 -124 -26 -117 -37 4 -6 11 -6 20 2 12 10 14 4
14 -35 l0 -46 -50 0 -50 0 0 41 c0 34 -3 40 -17 35 -10 -2 -33 -7 -50 -11 -31
-6 -40 -21 -34 -57 1 -10 -63 -9 -154 1 -55 6 -88 4 -158 -12 -62 -15 -91 -17
-98 -10 -15 15 -143 366 -175 481 -15 50 -32 92 -38 92 -15 0 -8 -72 8 -82 6
-4 7 -10 3 -15 -12 -11 -27 17 -27 50 0 34 -26 47 -44 22 -15 -21 -36 -12 -36
15 0 10 -6 21 -12 23 -10 4 -10 6 0 6 8 1 16 -8 19 -19 6 -24 10 -25 29 -5 12
12 13 22 4 55 -12 46 -7 60 21 60 22 0 22 3 10 47 -8 27 -6 32 12 37 38 10 47
7 47 -16 0 -44 11 -49 69 -33 29 7 54 15 56 17 2 2 -2 27 -8 55 -6 29 -9 54
-6 56 2 2 132 36 289 74 272 67 324 74 303 41z m-338 -8 c-3 -5 -10 -10 -16
-10 -5 0 -9 5 -9 10 0 6 7 10 16 10 8 0 12 -4 9 -10z m-1017 -81 c7 -29 11
-53 10 -54 -9 -7 -76 -12 -85 -7 -12 8 -34 93 -27 104 3 4 24 8 48 8 l43 0 11
-51z m112 -85 c0 -8 -4 -14 -9 -14 -6 0 -9 9 -8 19 1 22 17 18 17 -5z m-37
-36 c17 -54 15 -71 -10 -66 -10 2 -17 17 -19 41 -2 21 -6 47 -9 58 -4 12 -2
19 7 19 8 0 21 -22 31 -52z m77 32 c0 -5 -2 -10 -4 -10 -3 0 -8 5 -11 10 -3 6
-1 10 4 10 6 0 11 -4 11 -10z m30 -80 c0 -5 -4 -10 -10 -10 -5 0 -10 5 -10 10
0 6 5 10 10 10 6 0 10 -4 10 -10z m1515 -70 c-5 -8 -11 -8 -17 -2 -6 6 -7 16
-3 22 5 8 11 8 17 2 6 -6 7 -16 3 -22z m-1857 -25 c-2 -2 -12 -5 -23 -7 -14
-2 -21 3 -23 19 -4 28 41 38 46 10 2 -10 2 -20 0 -22z m407 25 c3 -5 1 -10 -4
-10 -6 0 -11 5 -11 10 0 6 2 10 4 10 3 0 8 -4 11 -10z m-205 -100 c0 -5 -4
-10 -10 -10 -5 0 -10 5 -10 10 0 6 5 10 10 10 6 0 10 -4 10 -10z m1690 0 c0
-5 -2 -10 -4 -10 -3 0 -8 5 -11 10 -3 6 -1 10 4 10 6 0 11 -4 11 -10z m-1180
-60 c0 -4 -12 -12 -27 -19 -21 -10 -28 -9 -34 1 -16 24 -9 47 14 50 20 4 47
-15 47 -32z m-450 -40 c-8 -5 -19 -10 -25 -10 -5 0 -3 5 5 10 8 5 20 10 25 10
6 0 3 -5 -5 -10z m-43 -46 c-3 -3 -12 -4 -19 -1 -8 3 -5 6 6 6 11 1 17 -2 13
-5z m2208 -135 c10 -15 -1 -23 -20 -15 -9 3 -13 10 -10 16 8 13 22 13 30 -1z
m-371 -55 c17 -6 23 -54 7 -54 -5 0 -7 8 -4 19 5 20 -18 42 -25 23 -2 -7 -8
-10 -13 -6 -10 6 -3 24 11 24 4 0 15 -3 24 -6z m-1429 -114 c-3 -5 -11 -10
-16 -10 -6 0 -7 5 -4 10 3 6 11 10 16 10 6 0 7 -4 4 -10z m1721 -27 c-10 -10
-19 5 -10 18 6 11 8 11 12 0 2 -7 1 -15 -2 -18z m-2156 -68 c0 -45 0 -45 35
-45 35 0 35 0 35 -45 0 -45 0 -45 -35 -45 -34 0 -35 1 -35 40 0 39 -1 40 -35
40 -35 0 -35 0 -35 44 0 46 7 54 48 55 20 1 22 -4 22 -44z m389 -155 c36 -112
40 -132 29 -150 -13 -21 -72 -51 -235 -120 -44 -19 -79 -39 -76 -44 4 -5 2 -6
-4 -3 -5 3 -43 -7 -83 -24 -40 -16 -75 -27 -78 -24 -3 2 7 9 22 14 14 6 26 15
26 21 0 6 41 94 92 194 l91 183 74 27 c41 15 77 34 80 42 3 8 8 14 12 14 4 0
27 -58 50 -130z m-559 -45 c0 -47 -4 -50 -47 -39 -18 5 -23 14 -23 38 0 40 6
46 42 46 27 0 28 -2 28 -45z m1840 -55 c0 -5 -7 -7 -15 -4 -8 4 -15 8 -15 10
0 2 7 4 15 4 8 0 15 -4 15 -10z m-525 -122 c4 -18 9 -41 11 -50 5 -15 -2 -18
-44 -18 l-49 0 -10 50 -10 50 48 0 c46 0 48 -1 54 -32z m-775 -8 c0 -5 -11
-10 -25 -10 -14 0 -25 5 -25 10 0 6 11 10 25 10 14 0 25 -4 25 -10z m140 -83
c0 -8 -11 -19 -25 -25 -36 -17 -45 -14 -15 4 24 14 24 15 3 11 -13 -3 -23 -1
-23 3 0 7 10 11 53 19 4 0 7 -5 7 -12z m930 1 c0 -7 3 -30 6 -50 l6 -37 -46 2
c-48 2 -49 2 -61 65 l-7 32 51 0 c34 0 51 -4 51 -12z m-750 -12 c0 -2 -8 -10
-17 -17 -16 -13 -17 -12 -4 4 13 16 21 21 21 13z m-265 -26 c3 -5 1 -10 -4
-10 -6 0 -11 5 -11 10 0 6 2 10 4 10 3 0 8 -4 11 -10z m105 -90 c8 -5 11 -10
5 -10 -5 0 -17 5 -25 10 -8 5 -10 10 -5 10 6 0 17 -5 25 -10z m104 -25 c-4 -8
-13 -15 -22 -15 -13 0 -12 3 4 15 24 18 25 18 18 0z m-74 -25 c0 -5 -5 -10
-11 -10 -5 0 -7 5 -4 10 3 6 8 10 11 10 2 0 4 -4 4 -10z m101 -17 c-12 -20
-14 -14 -5 12 4 9 9 14 11 11 3 -2 0 -13 -6 -23z m-40 -30 c13 -15 12 -15 -11
-3 -34 17 -36 20 -18 20 9 0 22 -7 29 -17z m-75 -19 c18 -14 18 -14 -6 -3 -31
14 -36 19 -24 19 6 0 19 -7 30 -16z m-75 -21 c13 -15 12 -15 -8 -4 -24 12 -29
21 -14 21 5 0 15 -7 22 -17z m-151 -14 c0 -5 -4 -9 -10 -9 -5 0 -10 7 -10 16
0 8 5 12 10 9 6 -3 10 -10 10 -16z m76 -10 c4 -8 1 -8 -14 0 -12 6 -24 16 -28
22 -4 8 -1 8 14 0 12 -6 24 -16 28 -22z m1494 21 c0 -5 -7 -10 -15 -10 -8 0
-15 5 -15 10 0 6 7 10 15 10 8 0 15 -4 15 -10z m-1360 -76 c0 -2 -8 0 -19 5
-10 6 -22 7 -26 3 -5 -4 -5 -1 -1 6 5 9 12 9 27 2 10 -6 19 -13 19 -16z m327
4 c-3 -8 -6 -5 -6 6 -1 11 2 17 5 13 3 -3 4 -12 1 -19z m-411 -20 l19 -21 -27
18 c-29 18 -34 25 -20 25 5 0 17 -10 28 -22z m1534 -18 c-8 -5 -22 -10 -30
-10 -13 0 -13 1 0 10 8 5 22 10 30 10 13 0 13 -1 0 -10z m-1130 -10 c0 -5 -5
-10 -11 -10 -5 0 -7 5 -4 10 3 6 8 10 11 10 2 0 4 -4 4 -10z m1236 -17 c-6 -6
-36 9 -36 18 0 5 9 4 20 -3 10 -7 18 -14 16 -15z m-209 2 c0 -8 -4 -12 -9 -9
-5 3 -6 10 -3 15 9 13 12 11 12 -6z m-1007 -55 c-6 -37 -8 -40 -9 -13 -1 29 8
68 14 61 1 -2 -1 -23 -5 -48z m1120 -8 c3 -2 -6 -1 -20 3 -23 7 -24 7 -10 -10
14 -17 14 -17 -8 -6 -12 6 -27 9 -32 6 -6 -3 -10 -1 -10 4 0 6 10 11 23 12
l22 0 -22 9 c-13 5 -23 14 -23 19 0 8 61 -20 80 -37z m20 33 c19 -22 8 -25
-12 -3 -10 10 -14 18 -9 18 5 0 14 -7 21 -15z m-1174 -23 c-17 -16 -18 -16 -5
5 7 12 15 20 18 17 3 -2 -3 -12 -13 -22z m1254 13 c17 -9 30 -20 30 -25 0 -12
58 -42 72 -38 6 2 -3 10 -20 17 -17 7 -33 20 -37 29 -5 14 -4 14 12 0 20 -18
78 -48 90 -48 4 0 -1 7 -11 15 -14 11 -16 15 -5 15 12 0 12 2 -1 11 -12 9 -11
9 5 4 11 -4 28 -10 37 -12 22 -6 36 -72 18 -83 -7 -5 -10 -17 -6 -31 6 -22 6
-22 -5 -5 -8 14 -9 24 -1 36 11 18 5 70 -9 70 -5 0 -6 -6 -3 -14 4 -11 -2 -14
-25 -11 -20 3 -29 0 -25 -6 3 -5 -11 -3 -31 5 -20 9 -41 14 -45 11 -4 -3 -11
2 -14 11 -5 13 -9 14 -22 4 -12 -11 -12 -15 -2 -21 20 -13 4 -10 -35 6 -19 8
-36 13 -38 12 -2 -1 2 3 9 9 7 6 9 19 6 29 -5 11 3 7 20 -10 23 -23 29 -25 43
-14 14 12 12 15 -16 26 -17 7 -31 15 -31 18 0 8 9 6 40 -10z m180 -13 c0 -15
-2 -15 -10 -2 -13 20 -13 33 0 25 6 -3 10 -14 10 -23z m-1969 1 c13 -17 13
-17 -6 -3 -11 8 -22 16 -24 17 -2 2 0 3 6 3 6 0 17 -8 24 -17z m1622 -50 c-14
-5 -5 -35 14 -46 12 -8 19 -37 8 -37 -3 0 -24 9 -45 20 -33 17 -40 25 -39 48
2 24 2 25 6 4 4 -23 62 -67 72 -56 3 3 -2 10 -12 15 -9 6 -17 17 -17 24 0 8
-5 15 -10 15 -6 0 -5 6 2 14 7 8 17 11 23 8 5 -3 4 -7 -2 -9z m52 -15 c14 -6
25 -15 25 -20 0 -5 -13 -2 -30 7 -45 23 -41 34 5 13z m200 -14 c8 3 17 1 20
-3 7 -12 -14 -18 -50 -16 -44 3 -45 4 -45 17 0 9 3 9 12 0 18 -18 32 -14 17 5
-13 15 -12 15 9 4 13 -7 30 -10 37 -7z m-120 -3 c3 -6 -4 -9 -15 -8 -11 1 -20
5 -20 9 0 11 28 10 35 -1z m-1356 -39 c0 -14 -2 -13 -9 3 -5 12 -9 14 -9 6 -1
-8 -4 -12 -7 -8 -9 9 6 28 17 22 5 -4 9 -14 8 -23z m-369 -2 c0 -5 -5 -10 -11
-10 -5 0 -7 5 -4 10 3 6 8 10 11 10 2 0 4 -4 4 -10z m1587 -24 c-5 -16 -21
-17 -41 -3 -28 20 -12 39 20 25 13 -6 23 -16 21 -22z m157 27 c-5 -5 -12 -12
-16 -18 -4 -6 -8 -2 -8 8 0 9 7 17 17 17 9 0 12 -3 7 -7z m-58 -19 c18 -15 18
-15 -3 -5 -29 14 -33 14 -33 -4 0 -9 13 -24 30 -33 16 -9 30 -20 30 -24 0 -4
-16 2 -35 13 -25 15 -35 28 -35 45 0 28 18 31 46 8z m217 0 c9 -4 17 -10 17
-16 0 -5 -8 -4 -19 2 -26 13 -31 13 -31 -5 0 -8 14 -21 30 -30 42 -22 38 -28
-5 -8 -28 13 -35 22 -35 46 0 19 4 27 13 23 6 -3 20 -9 30 -12z m-103 -4 c8
-5 12 -11 10 -14 -3 -2 -14 2 -24 10 -22 15 -10 19 14 4z m-37 -26 c10 -4 16
-13 13 -20 -3 -7 3 -18 12 -23 32 -19 3 -11 -43 11 -25 12 -45 26 -45 31 0 5
5 5 13 -1 6 -5 23 -13 37 -16 24 -7 24 -6 -2 9 -28 15 -40 32 -15 21 6 -3 20
-9 30 -12z m-1413 -39 c0 -8 -2 -15 -4 -15 -2 0 -6 7 -10 15 -3 8 -1 15 4 15
6 0 10 -7 10 -15z m1550 -5 c19 -11 31 -19 25 -19 -5 0 -21 6 -35 14 -33 19
-40 18 -40 -4 0 -11 12 -24 32 -32 17 -7 26 -15 19 -17 -21 -7 -61 27 -61 53
0 30 13 31 60 5z m-1568 -38 c-3 -10 -1 -13 6 -8 6 3 13 2 16 -3 4 -5 -2 -8
-11 -7 -12 2 -19 13 -21 32 -2 21 0 25 7 15 5 -8 7 -21 3 -29z m-65 -4 c-3 -7
-5 -2 -5 12 0 14 2 19 5 13 2 -7 2 -19 0 -25z m1549 -26 c-5 -4 -86 36 -86 43
0 3 20 -5 45 -17 24 -12 43 -23 41 -26z m94 -17 c28 -14 50 -28 50 -30 0 -5
-99 42 -109 51 -12 11 15 1 59 -21z m40 -50 c0 -3 -22 6 -50 20 -27 14 -50 28
-50 30 0 3 23 -6 50 -20 28 -14 50 -28 50 -30z m-1940 -45 c0 -5 -5 -10 -11
-10 -5 0 -7 5 -4 10 3 6 8 10 11 10 2 0 4 -4 4 -10z"/>
<path d="M1961 2444 c0 -11 3 -14 6 -6 3 7 2 16 -1 19 -3 4 -6 -2 -5 -13z"/>
<path d="M1981 2444 c0 -11 3 -14 6 -6 3 7 2 16 -1 19 -3 4 -6 -2 -5 -13z"/>
<path d="M1553 2213 c-112 -27 -110 -25 -92 -97 l11 -44 111 25 c62 13 115 27
120 32 4 4 3 31 -4 59 -13 61 -5 59 -146 25z"/>
<path d="M1081 2105 c-57 -14 -105 -26 -107 -28 -2 -1 4 -26 12 -55 l16 -53
36 7 c55 9 183 42 189 48 9 9 -19 106 -30 105 -7 0 -59 -11 -116 -24z"/>
<path d="M1553 1968 c-24 -5 -43 -15 -43 -21 0 -15 37 -158 42 -163 4 -3 79
15 86 21 4 4 -29 147 -37 161 -4 7 -20 7 -48 2z m1 -40 c3 -13 1 -27 -4 -32
-12 -12 -17 -7 -25 27 -5 20 -4 27 8 27 8 0 17 -10 21 -22z"/>
<path d="M1235 1897 c-22 -5 -41 -11 -43 -12 -1 -1 9 -39 23 -84 l26 -83 42 7
c23 4 43 8 45 10 3 3 -43 163 -49 168 -2 2 -22 -1 -44 -6z m49 -29 c3 -13 1
-27 -4 -32 -12 -12 -17 -7 -25 27 -5 20 -4 27 8 27 8 0 17 -10 21 -22z"/>
<path d="M1505 1670 c-22 -10 -36 -19 -31 -19 17 -2 76 23 76 31 0 10 4 11
-45 -12z"/>
<path d="M190 2386 c0 -7 3 -28 6 -45 6 -28 10 -31 44 -31 l37 0 -10 45 c-10
42 -12 45 -44 45 -21 0 -33 -5 -33 -14z"/>
<path d="M341 2204 c0 -11 3 -14 6 -6 3 7 2 16 -1 19 -3 4 -6 -2 -5 -13z"/>
<path d="M80 2110 c0 -5 7 -10 15 -10 8 0 15 5 15 10 0 6 -7 10 -15 10 -8 0
-15 -4 -15 -10z"/>
<path d="M774 1964 c3 -9 6 -18 6 -21 0 -3 7 0 15 7 21 18 19 30 -6 30 -15 0
-19 -4 -15 -16z"/>
<path d="M2360 520 c8 -5 20 -10 25 -10 6 0 3 5 -5 10 -8 5 -19 10 -25 10 -5
0 -3 -5 5 -10z"/>
<path d="M2180 421 c0 -10 30 -24 37 -17 3 2 -5 9 -16 16 -12 6 -21 7 -21 1z"/>
<path d="M1263 2585 c0 -33 2 -45 4 -27 2 18 2 45 0 60 -2 15 -4 0 -4 -33z"/>
<path d="M97 1593 c-2 -5 -5 -27 -6 -50 -1 -35 1 -41 16 -38 10 2 26 4 36 4
13 1 17 10 17 46 0 43 -1 45 -29 45 -17 0 -32 -3 -34 -7z"/>
<path d="M13 1493 c-8 -3 -13 -23 -13 -47 0 -42 1 -42 30 -38 28 4 30 7 30 48
0 45 -10 52 -47 37z"/>
<path d="M0 486 l0 -486 318 0 c287 1 314 2 290 16 -16 8 -28 20 -28 26 0 6
-8 4 -18 -5 -24 -22 -29 -21 -47 7 -15 23 -15 27 0 49 13 21 14 26 1 36 -10 9
-16 9 -21 1 -10 -17 -45 18 -45 45 0 11 6 27 13 34 10 10 3 20 -31 53 -32 30
-47 37 -55 29 -29 -29 -66 3 -67 58 0 26 -10 45 -46 83 -37 40 -45 55 -41 76
4 20 -2 35 -24 60 -32 37 -36 54 -14 72 12 10 12 17 -2 51 -11 29 -12 43 -4
53 16 19 -13 43 -33 27 -22 -19 -59 24 -97 112 -18 43 -37 81 -41 83 -4 3 -8
-213 -8 -480z"/>
<path d="M2230 680 c8 -5 20 -10 25 -10 6 0 3 5 -5 10 -8 5 -19 10 -25 10 -5
0 -3 -5 5 -10z"/>
<path d="M2420 631 c0 -5 5 -13 10 -16 6 -3 10 -2 10 4 0 5 -4 13 -10 16 -5 3
-10 2 -10 -4z"/>
<path d="M760 16 c0 -9 7 -16 16 -16 9 0 14 5 12 12 -6 18 -28 21 -28 4z"/>
</g>
</svg>
